<mxfile host="65bd71144e">
    <diagram id="q2QdWTYHwnbtqg6MX_7p" name="Page-1">
        <mxGraphModel dx="1222" dy="546" grid="1" gridSize="10" guides="1" tooltips="1" connect="1" arrows="1" fold="1" page="1" pageScale="1" pageWidth="850" pageHeight="1100" math="0" shadow="0">
            <root>
                <mxCell id="0"/>
                <mxCell id="1" parent="0"/>
                <mxCell id="4" value="" style="edgeStyle=none;html=1;" parent="1" source="2" target="3" edge="1">
                    <mxGeometry relative="1" as="geometry"/>
                </mxCell>
                <mxCell id="2" value="Begin" style="ellipse;whiteSpace=wrap;html=1;" parent="1" vertex="1">
                    <mxGeometry x="330" y="100" width="120" height="80" as="geometry"/>
                </mxCell>
                <mxCell id="11" value="" style="edgeStyle=none;html=1;" parent="1" source="3" target="9" edge="1">
                    <mxGeometry relative="1" as="geometry"/>
                </mxCell>
                <mxCell id="3" value="Input N" style="shape=parallelogram;perimeter=parallelogramPerimeter;whiteSpace=wrap;html=1;fixedSize=1;" parent="1" vertex="1">
                    <mxGeometry x="330" y="230" width="120" height="60" as="geometry"/>
                </mxCell>
                <mxCell id="27" value="" style="edgeStyle=none;html=1;" edge="1" parent="1" source="9" target="26">
                    <mxGeometry relative="1" as="geometry"/>
                </mxCell>
                <mxCell id="9" value="i = 1&lt;br&gt;S = 0" style="rounded=0;whiteSpace=wrap;html=1;" parent="1" vertex="1">
                    <mxGeometry x="330" y="340" width="120" height="60" as="geometry"/>
                </mxCell>
                <mxCell id="25" value="" style="shape=image;verticalLabelPosition=bottom;labelBackgroundColor=default;verticalAlign=top;aspect=fixed;imageAspect=0;image=data:image/png,iVBORw0KGgoAAAANSUhEUgAAATEAAADhCAYAAACgLILzAAAAAXNSR0IArs4c6QAAAARnQU1BAACxjwv8YQUAAAAJcEhZcwAADsMAAA7DAcdvqGQAAEq5SURBVHhe7Z0FXBXLF8d/T2wFFAO7u8AWu7u7FRO7W2zFbrG76/9sfQZ2d6GAonRJh4Kx/zlz98IFiYtSlzvf99knO7v37t7Z2TPnnDkz5x+JAYEgAQkKCcX2wzdw8uIT+PgFo1yp/Bg7sCnqViuFNGn+kc8SqAu9once22H1jkuwsXdH7px66Na6Ogb3qI+MGdLJZ2kvQogJBAKNJo38r0AgEGgkQogJBAKNRggxgUCg0QghJhAINBohxAQCgUYjhJhAINBohBATCAQajRBiAoFAoxFCTCAQaDRCiAkEAo1GCDGBQKDRCCEmEAg0mmSdAO7i7gsvn0BULFMAOmmil6ceXwLg7OaDtGl1ULxQLmTNklE+En9Cw77jja0L7B284BcQgnTsO3MYZEWFUvlRpEBO/PNP5BUWnN184eTmjTLF8yK7fha5NGUR8jUUr987I1cOPRRj9SMQaBvJKsTaDloDR1cf3Ds5K1rhtHm/FSYsOoyw7z/5fi4DXRzZYIZGJmX5fnywd/REj9Gb8fSNA1/aRJU0THhNM2uNJVO7yiUKLCzPYd7a0/h362i0bmQkl6YsXr93Qu2uizGgcx2sn9f3j5a62X38NqpVLMI6k4JyiUBb+fotDMu3XMDc8R3lkpRPspiTgcHfMHzmHvx3681vAoX49UvCqu2XuACrV70Udi0fhI3z+iBr5gzoOWYznrz6JJ+pHjfuv0e97hZcC+vdviYOrzfD9UPTcGX/FGxa0BflS+XDim0XYTp5B3+ISsqWyIeuraohb+5scknKQ183Mzq3qIYqFQozTVIuVBOq+yUbz2L03AMIlTsKgfYSGPQN9dl7cuz8I7lEQyBNLKn4xaSTo8sXqdvITVK6EoOlNMVMpQrNZ0mBQV/lMxR4+wZJxepN4ceY2SeXStL9Zx8k3fJmUsMeFtK3b2Fyaew4OH+R8lYfJ2UsPVTatO+a9PPnL/lIBEyoSrW7LJIylBoqWd21lktTP/Q8plkckzKVGSo9fvVJLhVoK77+wVKphtOksk1nyCWagc48hizPEh2r++/QbvA6vLNzxerZPfHynRMypE+HIT3qI336tPJZwO1Htth2+Ab6djBB2yZG4b6qfHmy44W1A67esUanFlWRJ5c+L4+NLQev4/TV5xjRuxFmjW4HHZ3flc/06dJCN3NGnLz0BEblCqFW5eK8/Npda/75AnmzgwlWLN96kfugyEemCmlvZHreffIB9WqUkksBdy9/7PvfPZy+8gx2nzxQMK/Bb2bzgX/v4dTlZ6jKzDl7J0/sPHaLXfcdJKaNFsyXI07z0M3TD0s2nUNAQAjKlMiL0LAfWMbMAbqecbmCuP/sI/b+7y6vU9LalHX248dPbNx7FWevvYCLux+CQ77h3QdX1K9Rmh8nvn//we/98OkHeMS036yZ0sOQfT6q75Bw9/LDnhN3cPbqC+5vLFk0D05ceIzDZx4wLbFIpBVI1amXfSfv4gz7rjLF8rA6uo/Lt98ip0FW7lJIDljnhwvXX+LI2Ye4/cQWmTOmRz7D7PLRCPzZbz/E6otWtX1h7YSc2XWRI3tW+aiCq3feYvuRW9wX6x/4FTvZ31dYGRklhfIZ8Pr18g7ArmO3cc7qBai2VX22ivZ2nj/7UlTP7FqHTt3HJycvFC2QC5nYvSn58NkDizee4/dfsqihXKp4/psPXGe/6RUa1ioDT3Y9akd3n9kh5Nt3eHgFgAk1VChdQP6Ees8tOCQUHx08+XuSTS+zXJq4JKlPjB4svbDjBzXnD7Bcs1nIzF6M+/+bHaky5q75FwvWn8HJzaPQuWU1uVQBmX3Tlh7HwbXD0Kt9Lbk0Zpr0WY57Tz/gyoEpqFutpFz6O99Cv/MHoNrglmw6y31ip7aNQbmS+VGjw3zeaG4emxFpIIK+v0FPCwzsUhfbl5qyBvILK9l9Ltx4hje87OxhfmFCUC9rJswf3wGm3esz4a0Q2r3GbsH1e+/Y76yK/Uyg6etmQgBT64NZI+jZtiY2L+7PPxcT5BMz6aLwiW2Y3xdBTBhVamnOG32JwoY4xIRIdv3M8PULxg/WkMeZNlP4/thj7z9pBxfUJKBpUIC2//ZN5t9LL9rIOfvx2ekLcuXQ5S9OyNcw9GpXExbTukUIQ/ad9FwnLDjEfyOd6+cfguqViiJdOh08ef0Zry4uZALZIF71wrR13HjwHsUL58b7j25MmKdhpn1VbLMw5cejQi/0GdZZfWUvYH9WF/QCPXppj5sP3yMbE95dWlVjQvDPBKDVPWtuctvae3BBGkptheqifU2sMe8Fg2xZuWlOQmH2qpO8nqgd+Qd8hcT+G9qzAeaN64hs7DkQizacwRImhEb0acg6mHt8gCko+Bu+su+dMrQlKpcvjFHm+5GW1R+1SWoLo/o1wSrW8dO51ElUbDkbpYvkQSB73h8+e/J6d3Tx5ktXb1syEM3qled1bMXaFr0DM0e2weIpET5fau/N+62E7Sd3uD9exwVgt5GWeGPrzKQCUJK1nY7Nq2DhpM7xem4kjOl76V27fXwmL0t0SIglB6GhYeEmY1RzsuvIjdzcfPTio1wSwYFT9ySd4oOk1TsuySUxw7QTqaDJBCl31TGSq4evXKo+izee4fdx3uqF9P3HT6mL2QYpS9nh0st3jvIZCpjQldKXHCxduvma76/bdZmbynW7LZY8vvgzs02hqtdj++nYeWeuPOPnET3HbJZQZKCUw3iUdPPBe27isV5RqtJmDi/ffMBKPjN6XrF7yVJuuDRy9j5uKvsHhkiF60ziny3deDoz37359Z3dvKUSDaZyc/ytjTP/7E9uTh5VmJMv7XkZYW3nImWrNFLSq2AmMSHAP896bom9oJJOsUHS4Gm75DMl6flbB14nRdg1bezd+Lm27F+qd7oH+h66ByI+9dJ1xEb++VodF/Bz6PpR24mSAPabq7adK+WrMU76pyirs/3XJKYFSoZVx3JXAn3P9KXH5LPjh19AsFSk7mQpc5lh/P7onpmGKvVizy1NUVNp+dYL/LyT7HppWbssUGuC9NbWmZ/HtFup7aA17J5MpenLjvPziIXrT/N7ora18+gt/tw+OnjwdvoPK9djz0h5rS/egdy8MzAaJX1y8uSfp/ooINdvpRazJXdPP37uw+cf+XlZyg7jz4BgnRQ/b+byiOsTrFNi9b5EMqw2Vi6JbE6yrwsnPs/tIXtnWWcvDZuxWy5JfFJcnBi7J/iznjxt2jTRJkHIwEw/UqpJXY2LANa7BQaHQpdpeVG/iwklvLFxBnsJw7dnbxy4qRsdaZkZOmZgUzAhgx1HbvLBB4LU9Mu33iBvrmzcfCOVmwYlSNM8t3MCcufQY70XuGZgubA/0rOedOPea/xzSui7V83qifo1S/OejkymtXN6IxO757e2LvJZ8SM968U3zOvLNSC6fj5DA66hUL29eOfIz1EYJ4r/85MYdF9rd13m5sbp7WO5eUmHyAyfbtYGdaqVwJkrz+Hk6s3P33P8NtMgwrBuXh+updK5ZEpe3DOJay1K/qReSOuYataan0PXj24Em7jzxA5zx3XAJaZFZs6UAZfY86B7fHlpIW4enc40hoz4zLSU+EI2yrrdV+Dk5gMLpr22aWzM75nCfUibrVu9JNeKAoK+YiHTrigM59LeSVxrp/PoXrZZDGTaZC7eZmiEXAkdH9WvMUy71eUug2KFcnO3CrWq7m1r8NFwOscgexa0Y9clbcwhym/Ib5iNPaNxsokP1DAuxjVDGqQ5dv6xfNafwb6OE9/nVsOoGB6emoOtTBtMKlKcEKOX+B/ZD0R/RyWi7Pdj0UFnsW9U7KhAPodGvZahStt54VvVdvPQfbSlfMbvULae8uxhnrnygptgBNPK8IoJw3ZNjZnw0eMxbV6+gewhZ8FZZt6Qz0u5PX71CdmzZcEzJjC9vAP55wnyBxqXLyTvKaAR0QxMiJGP608gXwz52ZRQtRUukAMke8nciYmw7z+4MCe/Cvk9VO//3/+eskasy3/7wxf23Ky6evcdv5ZJlRLyNyigeqpcNuI3/VG9MEFM5mRctGpYidV/Ze6PIuHr6u4Ly0X9YchMKx0dHf7jc6kIVHWhuEKmXXPzqXubGpH8k2Su3zw6A4snd+GxjB+ZOUZmIP1uVeg5kluAzK/HLyNG1ckdUbtqiUhtvGjBXDzcp4ZR0XDfLR03YKYpdZpRn1ulMgWRL0/kkXPy51LnR2Z8QvAnzy2pSXFCjCApT5L9WzQvMDUs6q3IlxYX1DOS3U7O06gNgMrNx7TnPSxtM0a2QUaVwYXooIbVmr0w7l/8ebgGaWVbD91AWtYgR7JelRo5pSije7/1yAb9Jm6PtA2auosH0JI/gnpvJeTvocEFVei7qAH/qceS6oeEgCqk8RFKLTI6yP9B90ZByMNm7v3tN5y4+JQJQgkuHn48VMbHL4gJsSzIwrSOqJB/Rsmf1gsN/KgLaa2kYY8a0ARZMivux9XDF2GhP5gmEeGgVpcw1v7Il0gaoNKfFR2k3dJvI6EZHRSkTc/Tg3WcSujZKu9RiVKeZVRxzBMk2KKD6jfqQBV9Jz13qu+E4E+eW1KTIoVYuRL58J2pxB6efnJJBG6e/vwlJLU2LuhFLlcqn+z89JBLFVDDHGvaDNNHtOGbWe9GkUZIY6JVo0rc5L14/SU8We9z8cZrVGM9p3LEUiE4/sEgZiY43VsV7fb+msVv0fXRaYvJAb0v9GKUKJIb768uifb+aRvcvR43q2ij0SzSgKKiqkX+eb2oz4PnH/moYQOVEdYX1o74wTqbqJquOpDg0WG/j34bCbSouLL26R8YwjoHHS6UVGMMVfEP+sbbDN1bOOyHqWphqqj7m/k9RemPSJOmwZYsmRXXUn5X1M6Q7ocUgrj40+eWlKRIIVadCQV6OZ6+VfhuVKFGSU+klMpwcWy0bWzEewoKlaAH97cYlyvEtzPXXnDzgEyJttx/oWguuXPp8wf/0dELBfIaRNrId0EzBsgcIy0jJZKOaYTk3/P2Deaji1F/A724Hxw8+f2TxkxahhvTyijEQhXSUu1UOo7ErhcSIGTiliuZL1Low82HNshtoMtHauML+VFLMHOWtE0Kf1GFrtdqwCqUbzYLBsykysI6TBpFjSrMqcO9cvsN/12liuWRSxMGGlFUzmZR4sxMaWrvNLpIUIdEmhyNfqpClglp23GhCe05Rb5J5BzMzxoi2eDU0ykhAUY+CvI9UDS9OvRoWxO1q5TAiUtPMGbuAQQw0zIqZG5uP3IzVl+REmrYYwc2447t5Vsv8AEIGs5WUjh/DlSrVJRrBTR9g3pGJeQE72K2ATOWH+cqekqA7v/nT4nVi6KeqcHS0Drt0zC/JxPSSshc62K2kYeFfPFRlPftVBs/mcDatM+KCy6CtOilmy/A+kPEIEli1wvFJpHju0ntcuEadSAzcchfU61SES5w6bfE5/upIzXr3ZD7EWcsO8GFmRIaOKC4uub1K/CBmA7NqvDs3Oar/8eFiJKj5x7i6l1r1DIuhiqs3SYkr22ccez8w3D3AAkTilek50DxlUSe3Pp8psulW695GApBnfnpy894fKAqXPNkQo80aKWWpgntOUUKMYq76duxFl68c0LP0Ztx96kdj1vqzV4e6nlWzuwePlJFcTTGredAr7wZ91NFheJ1jluORNXyRbCZaWNF6k7GuPkHcej0fb6NnrMfxepNweJN52CYUx8Th7SQPxkzLVjDzWmgx0fFGtUqg9IqPSz5hnYuM+UPf8aKE2jRbyWmLzuOdoPXYhS7Vm52jbnjOnItJ7kh7bEQu0/yI/WdsA2mU3bysmHsxaVg4it3rGHSZREmLT6CodN386lb1HtTrFmh/Dn5d1B8m0mV4ti0/xpqd1nMf2ubQWtgsfk8E4iyec6U1MSuF9LCfvz8yQM3lfgGhMCHvdjUVu48sUX7oev4aBu9pKRF6VccwbWk2GjZsBIGdKmDK0wQ1etmgcmsLnqOtsRAVlf5cmfHpCEtubBbPqM7H0hZvuUimvRezn9b5+EbYDp5J49PWzGzR4yjq38KCa/hM/ai0/D1mGZxDDU7LuRxYaP7N0FjJsyJ4oVycxfIBwcvHr81bekxtBq4GlPZv2VLRA7appH/fIbZuIZXt+sSLrTi+9yu33+HrOWHs2ut4PtJQYoUYtQjzBjVDuaj28Hq/ns06LEULVijoxfIcmE/NFBpqNSrkAYVxISZUhOICpkXF/ZMhOWCftDNmgnr91xFn/Hb+Ga53wqZM6fH8und8PCUOQZ2rSt/KmaoVzepXJwH+I0Z0JQ3YlVouJyCa6cNbw0HprGt2fkfHy0a2qsh7hyfyc3llELPdjUxnAmtoOBQnLygGJan37V7xWDsXTWYm2JbDlzn8+lqsB75IqtHVUFPgydndoznQZHkr1y/+wrXRC7tmcA1Dx3q3WVTI7HqhV5mEmI0WKM6OpibdTSksZ+48ART2Uu+d+UQ2dSUeGApdYDkP4oLCjI9st6MtZ0MPKD1GhMUFBpBQc9kvhLUJs5sH4ul07rCxz+Y1wNpgeMHN8e9EzPDZ4EkJFRf+9cMgyOry7W7L7POPzMOsP1l03uEO/zp302s3ZuPaced7xv2XuUm78ktY3hIjyo0Gk4B03WqluRWj3IOZXyeG9VncEgYDzpOKpJ1FQt1cPXw42aMjs4/fPoKNZa/gRo8+S4oupkecP482blTngSnIP44ufrwkJi8zGxRncVAzapau/ncBHtybh5yMO06OSAT8rWNE9OSiv7WdtqYruZT0Wqzl1aTCI/YZxbA+V0Tw6PltZUUqYmpQuot+ZxIPf5bAUaQsKLes2XDivx76W8hwP6cZVvOo5DJRDx8/lEuUUD+mvf2bjzwlYKNkwsKQ2hSp/xvbYdGqz2+BMJIJZZNoJmkeCEmSNmQf5BGNMfOO4RN+67h6LlHfG5g20FruT9l8ZQuEb6xFAJp4/eZ0KXo9qixWgLNI8Wbk4KUDY1Ertp+EVsP38QXn0A+SkUjuBSpvmJm9xS7mKQmQyPszfuv5LFZe1YOSXGdRFIjhJggQSAB5i1Hd5MQIzOOhvYFCQ+9sjR4QDNF9JiZrO3OECHEBAKBRiN8YgKBQKMRQkwgEGg0QogJBAKNRggxgUCg0QghJhAINBohxAQCgUYjhJhAINBohBATCAQajRBiAoFAoxER+1oOLRL49PVnvuonrXBLWaKb1S0fKYt0ckFN097Ri2eU8vwSiG9h3/mqvnWqlQxPeiKIDE3/evTyE0+QQkk+ShfPi+b1UsbzTCxES9BiaJ7jlMVHsWjjGZ6SjLJ29xyzmafjSgl8C/2B3uO28FRxg3vUR9ZMGdBywCrcf2onnyGIyqrt/2HSosNo3agSOjSrjOEz92Cp5XneIaRWhCaWiFDN2ti78SWDPb0D+MqjlOCENAlaETWpoEd87+kH/jddWwmVP6HcgexeShQx5Hkk63Rdgvo1SmG1eS/5rMSDVmOgRB7vPrri69cwfg9tmxhDXzcTP05r999+ZIuKpQvwZcZpIctKrcyxcX5fvra/4HdoAVHK8kU5LGk9/Dama3gik0PrzMJXe01tCE0skaB167cctEKzviu45kArOpy3eomOwzZwzSIpICHl4u6LiYuOoGFPC9x/phBkSmg9/epGxbjwIChTDpkh8V0mmoQ1LUmtbn9Ipx04dR/FG0zFEstzPJUZLWs8dv5Bvja7r78iZyKtFEtr5pMAI2w+ufPMPcr0eOpCa+rT80gp0P2osyz2n0DLc5MAI6iTIDcBJcpJzQt/CiGWSNy4/x5TlhzDsundsXfNMEwe1gpblwyAgX5mtTM1/Q1kKlIK/s5mG2BtR4l+FeutxwSdP2vlSZ74g7IdxQc/JnSox3/3wU0uiQsJr9458TT853dNwOgBTbFgYieM7teEpwC7eP2VfF4EJNjmrzmFVbN6cr+YupA2Mmz6bizbckEuSX76TdiGw2ceyHuJA2m2o+ccQJM65WDWp1GMOS5TA0KIJRKUMTmNDtN0KhUNz+BcMF8OnoiBkgMnNpRyizScK/unYO64DnJp9FBaPMpmZJhDD2vn9I63E5iyDH1w8GDaWNwp7wh6oaYOb4WLeydxU0dZZlS2IBemblFyWDq4fEGn4RvQvV0NmHavFy+ziLRDSm7h4eUvlyQ/n52/cKd7YkGa3ozlJ5AxYzqewIUSgKRmtEqIBQZ9g+X+a6jTdTGyVRqJOl0W8/yRiQGZV7TqKY0WKaGEDj3a1YR+AuQKiIvMmTLw1Gt63L8Uey+8cP0Z/u8q8148c5O6ZuHfQGnMaPVXVUjY0CqlRuUi1r2nehw2Yw/6dDDh+T6JpLi/lAQlvh0waTsK1Z6E528duSm6YttFFKg1EaaTd0TKl8oHa5Yc4Ysm0qqv5IdN7fWlFUKMHuKq7Zdg0nkRz2lJD3fZ9G548voT9v97Xz4rYaG15ymF3Mg5+3k6MXXZe/IOOg5br9Z2IRqzKz5Qvew+fhsnLj7hCVN2HL7JBVr/idvlM5IOSp92/Pxj1DQuhlrGivRm3MRdcZKngiPNcvMBK4yddxAr2QusLZAZPXzWXpQsYshTrlGu1BEz9+AXq5uOzSvz9nvpRkQ7OGf1AsfOPebnU6q9+etOocOQdbz+UitaIcQoMQSlDKMEpz3a1uAPmEw6Sr1OSUETA/JFkP/ms7MX2g5agzNXn6vlzM2TUx8VSuVXa8uR/e9GOMnZff/ZRxjm1MPxC4+x+8Rt/hIoHcMxQcIv8qYs//2YOtB9UD5ESs+3fl6f8CSzlLvwo6MnM2/TsZf1HvacuINHL+2ZWW7Aj8dE5HuggujKY743OkS5HCkj0i+V8yhV2ls7F64dKqEcjpQC0EMlU3pUor0u+yfa8iiQS2D++I48xCRj+nS4fPsNGpqUxVSzNujNtFNKWhvyLUITu/HABoUL5ODPkZ4ndXT0PKmtp1a0NsRixrLj2MO0nidn5vHck4kBCc97T+24I5ca+b7VQ9G1dXX5aNJB4RX1ui3Bylk9MGFw3BnO46LX2M2RnPgknO0+uaNIgZyR/GkkHP/bN1nei5m9TDhRlvGjG0dy4f83UGLXvSfvynvsGbDm/cnRi6/7H/U5k6+QMp1HhRIxN+yxlCdrvndyJvucAQ/3GD//EHYxzXXDvL4Y1L0eP5cy03c22whjZgLfOjaDl6lCmuT56y/lPQV2TDhm18vCTOqIXJxkRj86PUfe+51X751Qm1kSvdrXwtYlA/lo46nLz9B9lCVuHp0Okyol5DO1D63QxMgsIY1jLWvglIaehIolM02a1inP81omFtTQ6lYvhcMbRiB9+rTY97+UEUT6t7SoVwE9mUar3Do1r8LTs5EJrVrevmll+RPRQ93n7Uc2WL71Is9S3bh2WfnIn0PCRPUeurNOI3cOPR6fp1pOG6X4jw6aDUCJaekz5FskaHCGZjPQZ4owTUdJnlz6/FwalIgOkyrFf7suWQVVKhSOVNatTeydmw3T9khjpaBkZbjEszcOyMUEYUy/Q1tI9ZrYV6ZqD566E9ZMc6A09uQ0vnzrDdoMXotjG0dE2xP/LVSlqkPadA+Nei3jGsuTM3Pl0uhZuvk8th68Lu/FDoUl9OtcR96LmYTWxKLi5R2Aau3n49+tY3iWdnX55OSFmh0XYNbo9hhnqnDaJzTkC2rRfxUPmKWR4ZRAjQ4L0KejSbx+87Slx7Dz6C28ubyYC07ytzbouZRrdKe3j43U3rSNVK+JzVtzivsJTm4eHT7qdeLCY2TTzcR7Q8LbNwjObj7877+FnPg0VSay3+QXQpiJUkQN/xvNc1swsbNaWw3jYvKnYkdSOoVSEGFhPzB96XF0aFoFw3o1kEuBl9aOWuW4Vwfyu1FHRIGsysBfF3c/2Nq7o1XDinyfhJq2kqqFGD1Y8kcUyGvAh5o9mcaw69htHDn3iEd9G+bU52EXTfusQK1Oi+RP/R2v3jnivNUrvHznxDUyelmt7lnDkQlJMgXigjSZfp1rq7WVLhZ75DqZ0TQ8/87Old+L3ScP7pymlyK5oRHRCzdeccf0vLWnuKYxcdFh9Bq7hU+dEUTg5uXPBw+a1i2PdGl1eBnNrAhkz5baNfkALSzP83JtJFULMVKxCzHt5wXr3U06L8SEBYeQO4cu9ylQoyA/g72jJ+wcPFCnWsI4Rp3dfHm4QPsh67ipVJ2ZWdOXn8C+VUN5NHxSQlHqVdrO49OOSBfbyQR4VbZPpq2PX5DipGSAouhpkjk50Dcz05l8YrSt2XkZ79gzUWobAgUvrZ14m6pXrZRcogicJt/a6LkH8ODZR0wY3Fw+on2kep8YLS/znBygOXVRtjiFVSSu74Bq09s3EA4u3lzr0cuaERVKFUCmTKl3KRR6wdbvuYr+TDtMrJHeP4X8kDuP3kSeXNn4qg4pgY17r4YvKfQ3UBsj64IGM5QamjYiVrEQCAQajVaEWAgEgtSLEGICgUCjEUJMIBBoNEKICQQCjUYIMYFAoNEIISYQCDQaIcQEAoFGI4SYQCDQaIQQEwgEGo0QYgKBQKMRQkwgEGg0QogJBAKNRggxgUCg0QghJhAINBohxAQCgUYjhJhAINBohBATJDm0Diclpv33v6dqJRTWNjy8/HkuTsr+LYgbIcQESYqPXzDGzD0Ak86LeNZvSmYiUEACfcOeq6jRcSFfO5+WNxfEjRBigiSDEoQs3HAa1SoWRdkS+eRSAUHCfPGGMzxPZq/2NaG9WSTjjxBigiSDUvWvMe/N083lza0vlwoIHZ00mDu+IyYPa8UT/WpzMtz4IoSYQCDQaIQQEwgEGo0QYgKBQKPRKiFGQ9Zrd/4HC8tz2HHkFsLCfshHEhcXd1/cf/YBd5/Y4bWNMwKDvspHkg/KgB7yNVTeS1oo0emvXxIPtRD8Djn5qW5E9aiHVgmx7PpZkDVLRsxacRL3ntkhbSJnTf4W+h3DZuxB0XqT0aL/KrQasApGreYgV9WxuH7/vXxW0kLZuictPIzanRfB3dNfLk06SKBfvP4Kj1/aw+ajOy7feg0nV2/5qHbjHxCCu4/tsO9/9xDEntOxcw9h+8mdj+oKYkarhBj1bI6uPsiYMR2G9WqINGkSbwSIhEXvcVtw86ENrh2aBt+Xm+D+ZD2mDW+FzBnTo1A+A/nMpOHHj5/YdugGanZcgDW7r+An04TSpvtzIf7irSOOnHnAvzc+2Ni7w9svCPMmdMKSqV3Z38F4xbTT+BAUHIo9J+7gs9MXuSTl8PVbGA9UtfvkIZeoj4uHL+wcPNC3kwl2rRiMPLmz4dHLT0xjDpPPEEQLU1u1BtbTSRVbzJaqtp0rsZdPLk0crO5aSzrFBklrd12WSxRY27pIXcw2SN++hckliQ/91rHzDki9x26R3to6S/W6LZH0K46QHF295TPiDzPJpVKNp0tBwd/kkqTDwfmLlKvKaOnUf0/lkpSDm4eflLvqGOnAv/fkEkFio1Wa2AfWy9k7eqFJnXI8Lod6zY8OnvHWJtThg6Mn/zdH9iz8XyWli+fB3lVDkSFDOrkk8aHfOm98R+xZOQSliuZBdr3M8hGBQPPRKiFmdf8dj4gunD8nplocRa1OC1Gm6QzkrzUBV++8lc9KGHIZ6OLXr184du4xAgIjHPlp0qRBlswZ5L3oIR+IEzN71d28fYPkT8YM+QPT/YX5KBCkVLRGiH3//hMnzj9BWqaV3Hr4HuZj2uPlxYVYOrUbvvgE4fiFx/KZCUNjk7KoWKYAzl57gZ5jLLmjVl1eWjuhSL3Jam8jzffLnxQItI9/yKaU/07VPHj+EY17LUPbJsbYscwUelkz8XKru9ZoZboGfTrWwq7lg3lZQuHo4o2hM3bjCtPyypXIj+1LB8KkSgn5aMz4M82N7ldd8uTSh1HZgvJe7JDp3MVsI24+ssHr/xahYN4/G2BYuvk8dp+4g2dn58WpWRIvrB2xdtdleS96xg9qDuNyheS9mKF6rdZ+HrZbmKJD8ypyadx8Z7/9yNmHyJk9K1rUrxg+sOMfGIJDpx+gXvVSqFC6AC8j6DonLj5Bl1ZVufauDjTia9TaHKtn92JtykQujZ3xCw6pNdl77ZzeyCZcAb+hFULsF/uJ0yyOYcfRW7h7YibKlcwvHwFv1P0mbOOa2ZxxHeTShIPM12lLj8NyvxVKF8uDW0dnIHu2yH6ypCS+QoxM4j7jtuLhC3u5REFA0Fe2fUN+w2yR5vnRyO+prWNRiv1WVUgjbT9knbwXPWd2jEM71smoQqEog6fulPcU/GT35OLhx032TFF8iwO71o3xOb5854S6XRcjJ/vciwsLoK+r6MiWb73An5FRmYK4/+9sZMqYnpePnrsfm/ZZYem0rphm1oaXqfLwxUcMmLQjUrwhxb85e/giR7asyJJJ8T1KBveoj1mj28l7EZA7w5X9nrhwebAG+Vh9CyKjFUKMhqjrd7eADut5rx+ZjswqjWsUM8U2H7DCf/smo1m98nJpwkLxYiNn78Oek3exfm5vjB7QVD6S9MRXiFHruP3YBl7egXKJgjNXn+PavXdYMaM7n9ithMz1RrXLhmu6SgKZwHOIIx6scL4c0M2aUd5TQGtr3XliJ+8p8PELwhTWKY3q1wRVKhSWSxWUKGIYo1ZKWlJtJsQK58+BC7snMmGlEICXbr5G1xEb0b9zHWyY35cPhBBbDl7H2HkHueZOx6LyxSeQ1Y0tF1xKSIueuOgwTJkwrcs0O1VKFTVERSYoo2Jj78a0xLiXJCrDOobEjm3URLRCiL2xdeE98Mh+jbF4cpdwzcGdvSAUN2WgnwU3mYakJ/fMicEjpsk06GmBoT0bYP28vnJp9NCI6cwVJ+S9uKlVuQQmDG4u78VOcpmTCcmfmpMEjUiTIEgXRRh8Y+U0YqyqVdKrQb7MrOz3qbuqxJ+Yk4K/Qysc+0eZyfiVaWMdm1UJb4zUQHcfuw1PpmEsm96dCzAynWhhur+R66/fO6NmhwU8+joS8jtQorCh4o9YIE1An2ky6m5RzZa4kPjEH+2ETMWoAozIyMqjCira182SUW0BJkgmSBNLzTCVXypSd7JkYDRKclIJ7nxh7SAVrDVBGjZjtxQa9l0K+/5DGjRlh8R6eOnBsw/yWfHn2LlHUuYyw6Qnrz/JJRIPbO03YZtUrN4Uyd3TTy5NHig4tUaH+VKmMkOlZ28+y6XxRwS7Ro8Idk16Ur0m9vT1Z7h5+HIzYsW2i9wZu/3wDXQevgHtm1XG2jl9uE/HnplwR849gq9/yG9O6fhga+/GfWBDp+3m03LOW73E4Gm7cPPheyyf0R2GuZJnMUA3Tz+s33MFg6buxLM3Dqw+vqPH6M1YsukcLt54JZaJFmgsqd4n9vq9E3uB/ZHTICsPdaCYMBolbFq3PArkyR7uKKW5jp9dvjDTLAOKFFBvOD06vLwD+EoVNBJGI046adKgulFR1KlWEoY59ZLNNKHf5+DiHa0pSXM56TfH596WbTmPvSfu4vGZufH2idE6+69tnLjz36hsoXjPYXV09UaN9guwzWIA64ji5xNLbDy/BHCf2KpZPdG7g/CJJQVaEycmSH4cWCfRd/w2PnugpnEx3HjwHh7spT+83gzlS0WEvQgE8UGrph0JkheafpU7hy5ObRvD46XWz+uDT05euHTzlXyG9kJhI1sPXoe1nQsfWCJtk0J/KLWdIHaEJiZINt7auvD5qytn9sDwPo3kUu3j+VsHLrC+hf6A3Wd3mHatx10RL9874fHLT3h0eo4Ico0FoYkJkgWaAnTo9H2ULGKIDinMr5XUUPo6mlJUp1oJvt5aYPA3PuugZYOKCP4aymd9CGJGCDFBkkMR7mt3XsaF66+ZaTkWebQ8fVvGDOl4/JrVvXcoUzwvD8qmwQ57R0/kyJYF2fSSb5qaJiCEmCBJoVCO3cdu8bmU+9YMRaH8OeQj2g1NAKdZHW0bG4XP3aRQGJoQr5slaWdEaBpCiAmSlFOXn8F89b/YvWIQTxJLa6eRH0jbofAXmgZnXE4xF5QGQSiZS4v6FcLncgqiR9SOIMmgGCrzVf/j2sWu43d4wpZuIzbBcp+VfIb2QvGMadOlRbFCufi+L9PMKGjaIFtWzGFC38E55eUTSCkIISZIMm4/sUWO7Fm54/rWQxvcemQDH/9g7gfSdmgGRfO65fjacETe3NnQoGZpLNp4FsZlC6HwXwRgp3ZEiIVAkEKhUcmfP6VIS0cJfkcIMYFAoNEIc1IgEGg0QogJBAKNRggxgUCg0QghJhAINBohxAQCgUYjhJhAINBohBATCAQajRBiAoFAoxFCTCAQaDRCiAkEAo1GCDGBQKDRCCGmZdCihLaf3PHzV9LmmaTrUtILWk+eFgAUCBIKMQFcSyCh9cbGGRaW5/Hugyvu/282MmdK/BVD6bob91zF9qO3+Hr6oaHfcf/5R6ya1QOm3eojmdJwClIRQhPTAvyZ5jNw0g4s33oRNh/dQPlzkyqJ76+fEu48scPg7vVwcvNonNkxDu2aGGHZlgsICv4qnyWIDVoQ8d9LT3kHQJA2e/rKM75ookBoYlpBaNgPvn67SZXimL7sOK7cfosHp8zD13JPasYvOIRLN1/j8em50M2aUS4VRIVezWPnHuEiq6vr999hnGkzJsh+4KOjF85ff4kuLati3bw+PMu8NiM0MS0gQ/q0qFejFNKm1ZFLkg/SKg6feYARfRoJARYHpC03rl0W25ea8tVvLfdbobpRUWxe3B9VKxTGZ1aXpOlqO0KICZKMwKBvGDVnP3q0rYkhPRvIpYLYyJVDj5nd32Br7840r2poZFIW37//hJunP4oXyi2SiDBEDQiShC8+geg+yhJFCuTEurm9kSWzSEOmLjQQE8A6gL6danOh5RcQDBd3X9Q0LsbzU2o7QoglAZSKfs3O/7Bi20VmSj2EK2uA2sSPHz8xcdFhlCiSG8tn9OBmkqOrN0K+hspnCGLj3tOP0NfNhIL5DPj+y3dOPIN61UpF+L62I4RYIvLaxhn1ui3B8Jl74OTmg89OXhg3/yCK1Z+Ku0/s5LOShpCvYXBw+cJzGVKGoY8OnggK+SYfTTwo2/e63Vdw44ENKpTOj5OXnmDHkZvoMHQdnFx95LMEMfHj5y88ff2JZztSDsRQvF02vcwIDgnFhj1XeJk2I0YnEwlv3yBUazef956X90/mqeqJw2fuM63kKJ6dm8fTciUF9Ig7DV+Pa3ffySUKKMfhy4sL5b248WIm4eTFR9CrfU20bFBJLo2dIPaiNeyxFDb2bnKJAnoJH54yRz7D7HJJ3Bz49x7uP/uIZdO7IWuWlDMoQPW7Yc9V/sznT+wklyYMId/C0KzPCtQwKopVs3tx8/HeUzu0G7IOObNlxdld41GqaB75bC2FhJgg4Tl9+ZmkU3yQxLQOuUSBs5uPtGr7RYmZWHKJ5vDJyUvSrzhCYr2/XJK0TFlyVCpab7Lk7Rsol6QMfv78JfUeu1mq332JXJK4/GLqrauHnxQY9FUu0W60zpxUTru5dPMVth++iRMXHuOFtSP32yQkHl8CeA9NvgtV8ufJjolDWopRJcEfQz7FvLn1U5Q2mpxo1ZtEc/YGTt6B3mO34ONnT7y3d0VP9vegKTt5QGhCQk5sifxBu66AaV9yqXqQr+Pe0w9qbzT8LhBoK1rjE/P44o/BU3dxp/ahtWYoUjAnn47TauBq9GhbA+MGNZfPTBhoSsjEhYf5nMFSRQ2xbm4fNDYpq9aQ+EumGZLPQ13aNjaC5aL+8l7iQcGVxq3nYNGkzhg9oKlcmnRMtTiGExcf48mZuTDIllUuTX5o8KLfhK1wdvfFzaMz5FJBUqEVQoxGeIZO282najw8NQdFmQBLCshEpRdvw96rvKHvWTkY/TrXkY8mHeRcj420zLRVDjwoofuNOjePwiJqdVqIOWM7wKxPI7lUQdq0aZA+XVp5L4K4rk1kjSZmjDRjMv1Vmb3yJP69/BS3j8+EgX6EEKNpoBnY/aeJYT7o5VtvsP3IDaye3Ts8TIHYevA6rj94j43z+yKngS4vo988a8UJHse2YGJnXqYKvSw0h5HqR8kv9goNmboTLh5++G/fZLlUAd1SdNO76LUL/hom7yUN6dPpRPuMNB2tEGKv3jmhYc+l6NiiCrZZmPKXNqmgF5HCCoZM340smTLgxuFpKF08r3w0afinqKn8V/S0a2LMJ2ar8uDZR3QYti6SmU0va1BwKBN4aX97GUy71cUa897yXgRxXZuQPu2W/4qAAmMv334j7ymgeYNhP34woZeRCwclJAStWL1GN0pHo3sNulvgyevPmDi4BVbN7snLqYOp2GI2n4d4wnIU2jerzMsfPP+I2l0WIxP7jcHvtvEyVSh6vkmf5bCJYsJ/ZdchwRY1iJdGoN9dXSLvReDKBF7+WhPkvaRh3rgOmDu+o7yXekj1QowaFsVp7T15F5dZL9nQpIx8JOmgKl6y6RzMV//LG9IctsUGTSvx8gmQ9+KGevrs+lnkvd9p1GuZ/Ff0mFQpgSVTush7CkjboKhw1eZBmkbbIWsxaUgL9O1gIpcq0NPLjFyyNqNKXNcmrjMBFBV3Tz/uG1RlxbZLuHDjFU5tHcODP5X8kyYNCuY1QDqmaUSF7n///+7h4On7WDGzByqVKSgfARZvPIt7zz5gy6IB4RoauRhoapRulozYvHgAL1OF2pOzuw++RxLuwBSLo+ye/XFw7TC5VAHNV6UYr6hQOEbXkZvkvaRhQJc6GNi1rryXekj1QszLOxCVWpnzRkm+FD2Vxp+UvH7vjFqdF2JYzwZYM+d3jUUVWmql5YDV8l7ctG9qzCcJJzaa7BOjdc2irvZATZ+0y+jKCXWXKyLBJnxiyUeqH5309A7g8/ZoSFpVgFFDJV8Z/Utz02hqUCAzFf4WMkfKNpnBr6kK9d40Wlm7akm5JGYK58/B5xequ5EpJ4id6JarISEVU7m6AkyQ/KR6IUbxWDQi6ODiDVcPX4QxU41U+RGz9/GF5Xz8gtHGdA1ama5GQODfL9JHiw5++OyJp28+8x6ahKSPXxDmrjmFiqULoIPse4kN0jJ6tqup9qaOYBQIUiupXogVK5gLQ3o0UMz677gQJsyk6zt+K1rUr4C2jY1hbecKNy9/viJAPsO/nwZEcySZ6EL/iTvQfug6dBmxCQ17LkPeXPrYs2oI0qdPfaNDAkFyohWjk6QRPXppzyc903zBGkbFEjVinkzYd0w4UmxaGmauGJUtiBJF8jATRT4hmQj7/oObzGRCkWkdU0hCTHgwYT90xh4M6l4PHZtXkUvVg5oZrSdGJjz5J6NzwsfFtsM3cPOBDV8UUC9r8vg2o4N+G+UuoMGY6EZokwuyLCiqP7Uv16MVQkzbIfN55baLfEnoLJkzcrO6eb3y2DC/3x8Jk/hAzevqHWus3nkJfv5f8S3sOw9xsVzYn69SKogfX7+G8YEfo3KFYl2TjZKzHDh1D+d3T0SO7CknMDgxSPXmpACw/uCK3Sfu8FFRChTdtWIwjpx7hD2sLLEhzWvLoesoWiAXbh6djhtHpvF4OVqSKIwJNG2HtPa3ti48npAEvr2jF5/bS6Om0eHg6o22g9fio6OnXBKBMiaxz7gtWLn9EneTaIOGIoSYFlCveim4P16HhrXKcJO2VuXifPAg6vI4iUG6tDo8yxFNiyJ/oL5uZlSpWIQHh2qzCUAy6sL1l6jUwhyVWprjnNULLNt8HtXazUPl1nNx/V7kZZPUgczGH99/YvfKIejfpbZcmvoRQkwLIbPyx48fPPgxqbG6a41T/z3FjFFtkSF95KlO2gTFrZGv9tqhKciVQ5cvFFCuVH7Y3ljGA29vPbSRz1QfCgvp0a5mqpxaFBtCiGkZNAWLJqbPHNUOFVWi1xMbShnXbtBa9B6/FdPMWqNlg4ryEe2E/IJtmxjziH5adbdOtZJo35TCbySupZYsasjPIxOTFoPsMdqSb7TMN825pMBfZdmeE7f5udqKEGJaBC1r3G/iNsyf0CnJsw1VKlsQ25eZ4t+tY2DBzCazWXuZNhh5grc2QiPmtOZcp5ZV+f47Ozc+imtcrhDfJ+2qRBFDvgIKbTRFjCbb1zQqFl6m7Su7CiGmJbh4+GLQ1F0Y1L0+eneoxUqk32YVJCa0SkaeXPr8JZw9uh3OXXuJDw4e8lHt5flbRxjm1EPRAjm5n+zmw/d8HmyBvBGrbZAPc3ifRnzr1ro6MjBzsUvrauFl2h7sLISYFkDLywyZtguNTMpgSI/6fJ+ECC0QmdjQKhj9Jm6HleyoJvOIzCW9rBnZy5qZl2kzdx7bolqFIlxw/fr1C29sXfi0MzI37ZjmHF+ofmmUkkxU+pcmqsc00plaEEJMCzhv9QKXb7/F6p2XUcBkIt96jN7MRwqTgqDgr3wlkWkWxzBsxh5sPnAdtEikYU59+QzthDTht3YuaNlQ4R8k07FQvhw8S1bPMVt4dqz4suPoLbQYsAq7jt+Bu1cAOpltwHBW5yTUUisi2FWQJNB0LPL/ZMqYDlXKF0n0IFtNJYxpTs+tHVChdAEeTyeIGyHEBAKBRiPMSYFAoNEIISYQCDQaIcQEAoFGI4SYQCDQaIQQEwgEGo0QYgKBQKMRQkwgEGg0QogJBAKNRggxgUCg0QghJhAINBqtn3ZEKyo4ufrw2f85DXRTfVIFgSC1ofVC7K2tM9oOWgsnd1++YF+7JsbykT+H1k5/Y+Mi71G6LLmKaYF7ubpLF8/DrlU5ydJp0VLIlOl8xbaL2Di/L0/lldjQ4n6X77zB8fOP+YKMmTKmx9CeDdCrQy2+9r5AkBBovTlZunheGJUryJPs0iqZfwstebJg3RlsOXidr5eVyyArLCzP4ey1FyhRODdfJ2rB+jN8uWaSaUnBJ0cvDJqyE3W6Lsb9Zx+UcjRRoTXLGvZaCvOV/+OCixIHt29qDLPZezFi1l6+WoNAkBBovRDz8g7E09cOaFCzdKx5/NTF1z+Yp9VaNr07hvZqiLIl8/EXumfbmujcsiqG9m6IQvkNUKtKCb5+VGLz3603GM6ERvlS+ZDfMDsrYddU47KhYd95OrGYoCWVvf2C5L3oKZgnO7ZZDESTOuVQoVQBTB7WCuVK5MfpK8/hFcuqssFfQ3k9xkRA0Ff4+MV8PCGhhQWpjcQEJSR29/KX9wTJgdYLsTc2zuxlDeTJZBMCyrM4uHs9tG1ixPdJ49LR0YFJ1eJ8nzLR9GhTg6+RnhRUrVAYxzeNxPjBLVC0YE65NG52HLnFNbf3H39P60Yv9qwVJ9Bp6HqmeYbKpZGh5aiPsutSAgwlJLRJOyXTlv6Lju9MKJjN3IOeYzbj67ff81KGsg6BtEqzWXvYuT/l0sSBPC2kUTfpsxyfnb/IpRFQPcxbewodh61HUEj09SBIfLRKiFFDpGwxXcw28JVNa3SYjwkLDyObbqYEW6eclhZeNLkL9/9QI3/y+jNyZM/CyhUCJEP6tJg7viNy59Tj+9FBSzpT767OFpvGQtBghb5e/Fdw7dS8Ck9422f8Vu5LU/KDaWCzVp7Evv/dg/nYDsgcy8J9lJJNVdv0CwjhCyNWrVgYObJFP4CSjgn52WPac02r7aA1fDFFJaS9mU7ZwRPMUramxF5Yke69T0cTlCiSG02ZIHvKnqUSGhBatPEsDp95iBkj2iBLpvTykcg8ffMZTXovh4HRKGzYexUu7r58qXDDamNRscVsvHjrIJ8p+GPIsa8NfHL0kko2nCqNm3dAYiYALzt2/pGEIgOlwVN38v2EhmkpUvX286U6XRZJrNHLpXFz7toLKX3JIWptHYeuC/89sUHntDFdLZVqNF1i5phcGjthYT+kVgNXSXmrj5OYIJOYWSyNMt8n5aoyWnr80l4+Sz1+/vwpma86KeWsPFqy+egml8aMvYOnVLTuZKle18WSt2+gxMxbqYvZRil/rfGSrX3cn09IAll9Ne+7Qspfc7z01tZZYoJcYpqopFveTLp656181u+EhISye94g2X5yk2p3Xii16L+StwWru9bS8zcO/PNUJ0wzFfwFWjE6GRT8Da1N1/ClkWkEUqk97D5+G6PnHsDlfZMjmT0JhZd3AIxbz+Wm5eZF/ZEmjXqKL2lXNvbu8l7skHlGKbvi8q/xtGDM7LH77IknZ+dCV83RSY8vARg9Zz+smTZmXLYgX6v/0LrhaFavgnyGelDC3l5jt2CNeS8M7FpXLo0dB5cv6Mk0ZmqiNJrqw+rl8DozPhgTG/S81+y8DCN2v+2bUS5HhWl45uoLWNu5Ypxp0/A24OTqDcv9VlzjoiWhY8I/8CtGzt6HRy/tUbNycdx9bIttSwaiSd1yMT5Xuqavfwg3resy05zuf++qoahfozTcPH1525g6vBX3FQr+AhJiqZ29J+5ImcsMlS5cfymXSBJ7qaXeY7dIZZvOUFsziS+soUuZ2HV3HLkplyQff6KJKSFNqGyTGUzzG8zrMr68sHaQSrPrrtx2kWlk8VM7nr35LGU3GimlLT5IOs80VHWwumfNNWxmrjENOJSX+QeEcM0uTVFTflzJwg2npX/YuWPnHZRLYuaLT6Bk1Mqcf/fKbRfk0rjx+OIv5a0xTuo/cRtvd8TD5x+5Jnb9/ju+L/hzUr1PjGKVlm25wHvvRiohFEzVx8MX9qhTtSQyZ4zen/G33HlqhzT4BzWSyImfGJAjfcKCw/ANCEHj2uUwdekxMFNSPho35NsaOGkH04iMmQbULF5xccEh3zBlyVEY6GdB8cK5MX/9afjF4QMkqpQvjJH9GjENpyUypFc826xZM2L+xE4YM7AJqlUqysuIXu1qom8nE/TvXFsuiR7SZGeuOAEPL380r1sea3ddwct3jvLR2GHmM9fkerWrxUNsiBsP3iObXmZUKJWf7wv+nFQvxGw+ucOWbRQDRmq9krtMwLAekoc96MgNKyH58fMnLt96g4L5DFCsUC65VD2uMJMtb/Vxam39JmzjzvbEgJzXY+cf5C/cccuROLh2GBrWLIMBk3fgyatP8lkxE8jMuqEzdqNSmYI86zil7CfohSahEBtk5nUdsYnfw7ld43HjyHRuUjbrt5IHzsYGDWRsWtCfCaY6zMxWlKVhf/TrVBtr5/SJZEoXL2yIfauHoWrFInLJ71BIx+TFR8C0JnbuUJzaPg4t6ldA64FrcOuRjXxWzFxn9afHrklZ0AkKyzhn9RKVyxcSM0QSAlkjS7UcP/+ImxBrd12WS8g8CpKMmVlQhplIgcEK04q9GNIdZv4llGnp6uEr5TAeJXUftUkuSV64k37AKmZOTpMCAuP+jUHB37hTulDtSdJHBw+5VOGgp99kwH4bmYmxsWHPFSlP9XHs8558UIA2H78gqVbHBdxMjAm6dqNeS6UyjadLLu4+cqkkuXn4SeWbzZSMW8/hfycF33/8kIbP2M0HJFQHM2igpvsoSyknq4fYBjloQMKk00KpbtfF0i/Zg+/s5iNlrzSSm7I0SECmruDPSfWaGPXelAH59OVnuP3IFofPPMDslSfx3t6dq/JZM7PjvyQMmLSdx/uwl0z+5N9BDnBy5NKoCYVaJBf029w8/fDf7dd4ZePM/vbHyUtPwIQAzzgdE1RPr947439bRjNNMrdcyjSaNGlgubA/WjJNZJrFcR7IGx2khVGSXDredeRG1O68iG81OizAGzsXpE+fVj4zMqShURgMaU7XDk1DPh6gqyBPbn38t28ye2YZMGP58UTTQFU58L97uPfsA7+uqrZGWv3OZaZo09gY4+cfijE5LZmfFGtnohLcTAMPIUzD/PDZk/2OEzh0+gEvF/wZqX50kl6mUeb78ZiZP2RGdG9bHcZlC2H51ovcPzN7dHuUKmYIs1l7UbRATlhM68YDUv8GioUav/Aw9ycR3VpXw5CeDeIcQUwMXJmwGjF7b7SBo5OHtkRzJoyig6LmQ0LCkCuHrlwSGZo2REI6T67os3jTnNQpFseYoPldUGbKlB6WC/ohf54IAaWKX0AwfjLhG1MsGY2YMhMChjFcOyEhQUkR+3kNs8klkSFzl+qYfHbR8dbWBZOYKTpxSAs0l0d0SeANmb4Lr1kn0blFVcwe217MJf0LtCLEgjSh4JBQHhxJQagCQXJDGid1cjTVLTk6t9SE1q9iIRAINJtU7xMTCASpGyHEBAKBRiOEmEAg0GiEEBMIBBqNEGICgUCjEUJMIBBoNEKICQQCjUYIMYFAoNEIISYQCDQaIcQEAoFGI4SYQCDQaIQQEwgEGo0QYgKBQKMRQkwgEGg0YimeRIRq1tHlCx6//swTXFCasEL5DHgqMd2smeSzEh+6j9fvnXjWbaOyheRSBbTo31s7F/zD/lOuAZ+YuHr44oW1I0/8m1ZHB2VL5uOJPVTzHNAa/HafPZAze1YUKaB+1nJtgZ7nZ2cvng6uYpkCWr+gotDEEglaFvrEhUeo2n4+Nu+3wkdHTyzfcgENei7FkbMP5bMSF+qdaBXRhRtOo2q7eTwBSVQoCUabQWvQYdg6uUQ96PfRpi60TDWtsFuy4XSs3X0F3n7B2H3iNmp1XAgLy3PyWQoePvuAWp0WYs3O/+QS9aDFL1NKn0z3kVjLkv+SfmHB+tOo330JfFk9ajtCiCUSd57YYsj03Vg0sTMu758Mi6ndcGj9cGTTzYyyJfLJZyUe9ALtO3kX7Qav4cKLBE50WZ3SpUuLzBkzQJ/dV3xYveMSVmy7KO/FDQkxuo8BXerg4u6JmDKsFY5vGoXSxfJg66Eb8lkKKL2aTpo0MMypJ5fEDa1bP3jaLr4MeUrgPhPEPUZb4otPoFyScJDWTLkh6Nn9E48UeKkVIcQSiWt3rbna36RO2XDhUaxgbiyY2ClJhBglonB09cZxy1FYOq2bXPo7lE+AMqNn04ufefvG1gVvbJzlvbjRZYLp7M5xWDK1a3h9ZNfPgnLMnPRj5qMqZGpTfsa8uaNf1z46yCy++8QOXokgNP4ET+9A3HxgE2Milb+BVrOmZa3JjKSEKtqOVgkxUvGfv3FA3/HbULHFbPQauxnObj7y0YQl5GsofjBtiPwWSjIyYTGqf5MkyTVISVHMx7SHQbassa7hrhBi6WNMypFQkGZFCYwpYawSyr/o7hXArp1FLlFA9075EHIZRJ+kJLXyjLXNRj2XYubyE7ztUO5NaqP1ui3BrYcR+S3peeoyIUYZo+KTjDi1ojVCLCgkFFMtjmHasmPo3aEWtiwegCevPmPUnP34/j3hU3/Vr1mGawdTLY7yjDfqcuq/p/ye1NlUG/afQvKNhEZSZA6KirWdK17ZOKF3+1pyiQJKh0ZZ2bMxTU1bOHv1BeatPcU7lP3/3sOdx7aYvuw4yhbPBwcXb559XFWrI22V6ikxEj9rGlpRA+QfmsaEyYXrr7gfpnWjSjyVPY0UOrv58mzdCU3bxkaYM7Y9HrywR5Pey/Hw+Ue1nM6Uqux72A+1NnLwJgR6upmQJ2fSCjF6Iees/heliubBVLPWcqmCjBnSIkumDMgRDyH2J+580gRJUyatRwn5Dv0CQn4zAymFXWDQN3lPDeJ5Q4Xz5+CmP7VNuvY01uEund4dM0e1RfVKRRDArv1TJU+onm5GhRBjGq62oxUhFg+ef+Ap5+ll6dfRhKsfZO61GbQWJYvkxqlt47j5ktDQy3H26nOMmXuAa4KH15mhFWukSc29px+4SbJyVg9MGNxCLo1g0NSdqGFUDGZ9GsklkaH0/Rv2XoOkMhr57K0DF8pVK0QklCWtzpwJ7srlC8sl0UOa77j5B/HopT3+3ToGBfPlkI8ooFyOlGj33K4JMeamXLDuNJ6/dZT3FCnQbjx8j0plCsAwR4RAzpolAzYt7Ae9aEJaSPNZu+syLNnx3h1Yu2DcuP8eXUZsRLN65XF4vRk33Xz9g9Gs7wp4+wbj050V/DxVPjt/4VpTaOgPuQRw8/Lj99fIpAwyZYhIE0j5Kek5RAcJ0JGz9+LIuUe4sHsCalctiVDWWbXovxKZM6XH6W1juTOf+N+lJ1i6+QJuHp2u9WkIU70Y/8562yWbzvM3jDSxXuO2otfYLRg8bTdP/NquaWWkTZs41UDO6U4tquLg2uFcG9x+9KZ8JGWRXS8zDGLRekgrKsiESYG8ERtl4SbnsmoZbaQdxAaZ2FsPXcetxzbYvXLIbwKMoO+g0dJMsXxXTgPdSNfNnycb0unoIFf2KOWG2XjW8uig+yfhRqarkgxMC6RBCH1WrvQlkrajx+5Hn2ms0UEdYH7DiGvSRjFuOmn+Qb7c2SKV58kV84graYbWH1x5cucqcudAnS0N0FQpX4S104iOlu6b7j+m36ZNpHpNzPaTOyq3notB3ethtXkvuTQCaqCJ7Rylhtigx1L+9+Mzc/m/MUExZQdP35f3YmfikJbo3LKqvBczcWlilLGcHO7xGXAYOHkHF8z71wyTS9TjxIXHPNv62Z3jeWr/mKCA2Iql80OHCSZ1oGDi6h0WYO3c3mjTyEgujR0SGmQi0m9X+pZ+sdfBn5mTpN2oCmQyJ3/++MVNb3U4dfkZhrKO8vmF+Ux4GcilsUNmbKWW5ujRtgaWz+jOhehzpvFS2zm5eRTTDiOytdO5n528YFSuULiw1VZSvRj/5PQF38K+o2yJvHxIOupGAsw/MASe3gHyJ/4OanTDZ+zhZoASMhPI3KHeOi5KFjNEi/oV1NoK5lPv5YgN6sPUfTH/ForSp8DWZdO7o6ZxcblUIdhUobojDeabinmWGNDILAluVec4hSxQ6EdUjZK00cSupw+fPbjpWrNy8XDBdPuRLde4KpQuECm4mO6TTO3U7wyKm1QvxOglpQdtY+/OfS3kNKWwCuol7R09ERwSiqZ9VvAeMCEgP8jR84/4dxPkjKWhc4rY79i8Mi+LjaZ1ysN8bAe1tuqVisqfih767SQ8nd28+ZQjVw8/rn2QtqHki08QKrUwZ729hVySONB9TF58BEHBofDxC8Kq7RexYusFzFh2go+0qnLl9hvkrTEey9lxbeLeUzsuUI1Vpn89eP6Rh6CQAKPgWWs7F64BjzTfjxINp8PbN0g+U3tJ9UKspnExNKldlkeFm3RexF/W2av+h8E966Nw/pxMU/PiAi420yY+OLh84SZKx2Hr0X2UJToMWYfRcw9g1cye6BUllCCx2XrwBndIj5l3iAvyzQes0LDnMvQdv5WbTEmJo4s3Lt54DVumbUxdejx8W7rlPB9503ZIMFH9FC2QM5KfsHL5QqwD9EK7IWvRtXV1lC6WVz4iUKIVo5PUQKhH8/wSgPKl8qNkUcNE8yNQbbp7+cHukwe++AZy04Q0pqxZMspnpA62MIFI4SAUvJsSII161sqTfFpTXKOjScGTV594x7lsejcecPyn0EDIjQfv+ahm0YK55FKBKmIVC4FAoNGkenNSIBCkboQQEwgEGo0QYgKBQKMRQkwgEGg0QogJBAKNRggxgUCg0QghJhAINBohxAQCgUYjhJhAINBohBATCAQajRBiAoFAoxFCTCAQaDRCiAkEAo1GCDGBQKDRCCEmEAg0GiHEBAKBBgP8H7btL+L1Yi3UAAAAAElFTkSuQmCC;" vertex="1" parent="1">
                    <mxGeometry x="590" y="180" width="305" height="225" as="geometry"/>
                </mxCell>
                <mxCell id="29" value="true" style="edgeStyle=none;html=1;" edge="1" parent="1" source="26" target="28">
                    <mxGeometry relative="1" as="geometry">
                        <Array as="points">
                            <mxPoint x="510" y="510"/>
                        </Array>
                    </mxGeometry>
                </mxCell>
                <mxCell id="31" value="" style="edgeStyle=none;html=1;" edge="1" parent="1" source="26" target="30">
                    <mxGeometry relative="1" as="geometry"/>
                </mxCell>
                <mxCell id="32" value="false" style="edgeLabel;html=1;align=center;verticalAlign=middle;resizable=0;points=[];" vertex="1" connectable="0" parent="31">
                    <mxGeometry x="-0.2859" y="3" relative="1" as="geometry">
                        <mxPoint as="offset"/>
                    </mxGeometry>
                </mxCell>
                <mxCell id="26" value="i &amp;lt;= 1/n" style="rhombus;whiteSpace=wrap;html=1;rounded=0;" vertex="1" parent="1">
                    <mxGeometry x="350" y="470" width="80" height="80" as="geometry"/>
                </mxCell>
                <mxCell id="28" value="S = S + i&lt;br&gt;i = i + 1/(i + 1)" style="whiteSpace=wrap;html=1;rounded=0;" vertex="1" parent="1">
                    <mxGeometry x="450" y="590" width="120" height="60" as="geometry"/>
                </mxCell>
                <mxCell id="34" value="" style="edgeStyle=none;html=1;" edge="1" parent="1" source="30" target="33">
                    <mxGeometry relative="1" as="geometry"/>
                </mxCell>
                <mxCell id="30" value="S" style="shape=parallelogram;perimeter=parallelogramPerimeter;whiteSpace=wrap;html=1;fixedSize=1;rounded=0;" vertex="1" parent="1">
                    <mxGeometry x="130" y="480" width="120" height="60" as="geometry"/>
                </mxCell>
                <mxCell id="33" value="end" style="ellipse;whiteSpace=wrap;html=1;rounded=0;" vertex="1" parent="1">
                    <mxGeometry x="150" y="620" width="80" height="80" as="geometry"/>
                </mxCell>
            </root>
        </mxGraphModel>
    </diagram>
</mxfile>